<svg width="85" height="87" viewBox="0 0 85 87" fill="none" xmlns="http://www.w3.org/2000/svg">
<rect x="16" y="1.83154" width="53" height="30.2211" rx="15.1105" fill="white" fill-opacity="0.49"/>
<path fill-rule="evenodd" clip-rule="evenodd" d="M1.5921 20.3568C0 25.047 0 30.8647 0 42.5V44.5C0 56.1353 0 61.953 1.5921 66.6432C4.59006 75.4749 11.5251 82.4099 20.3568 85.4079C25.047 87 30.8647 87 42.5 87C54.1353 87 59.953 87 64.6432 85.4079C73.4749 82.4099 80.4099 75.4749 83.4079 66.6432C85 61.953 85 56.1353 85 44.5V42.5C85 30.8647 85 25.047 83.4079 20.3568C80.4099 11.5251 73.4749 4.59006 64.6432 1.5921C59.953 0 54.1353 0 42.5 0C30.8647 0 25.047 0 20.3568 1.5921C11.5251 4.59006 4.59006 11.5251 1.5921 20.3568ZM42.1905 6.83106C42.7323 6.80019 43.2677 6.80019 43.8095 6.83106C44.9538 6.89626 47.5525 7.29539 50.578 9.43797C53.6004 11.5784 57.18 15.5515 60.1424 22.9763C60.5517 24.0022 61.7152 24.5021 62.7412 24.0928C63.7671 23.6834 64.2669 22.5199 63.8576 21.494C60.659 13.4772 56.6436 8.83209 52.8897 6.17363C49.1387 3.51731 45.7795 2.93682 44.0371 2.83754C43.3437 2.79803 42.6563 2.79803 41.9629 2.83754C40.2205 2.93682 36.8613 3.51731 33.1103 6.17363C29.3564 8.83209 25.341 13.4772 22.1424 21.494C21.7331 22.5199 22.2329 23.6834 23.2588 24.0928C24.2848 24.5021 25.4483 24.0022 25.8576 22.9763C28.82 15.5515 32.3996 11.5784 35.422 9.43797C38.4475 7.29539 41.0462 6.89626 42.1905 6.83106Z" fill="#00196B"/>
<rect y="21.979" width="85" height="65.021" rx="30" fill="#001147"/>
<path fill-rule="evenodd" clip-rule="evenodd" d="M0 54.4895C0 52.1584 0 50.9928 0.0647734 50.0087C1.05313 34.9925 13.0135 23.0321 28.0297 22.0438C29.0138 21.979 30.1793 21.979 32.5105 21.979H52.4895C54.8206 21.979 55.9862 21.979 56.9703 22.0438C71.9865 23.0321 83.9469 34.9925 84.9352 50.0087C85 50.9928 85 52.1584 85 54.4895C85 56.8207 85 57.9863 84.9352 58.9704C84.6703 62.9949 83.6173 66.7999 81.9286 70.233C81.8314 69.5239 81.7292 68.8155 81.6227 68.1089C80.2136 58.7619 77.8617 48.6269 75.2829 39.1352C72.7152 29.6847 64.5825 24.6249 56.3982 24.8939C51.1655 25.0659 46.0742 27.3995 42.5001 31.5411C38.926 27.3995 33.8347 25.0659 28.602 24.8939C20.4177 24.6249 12.285 29.6847 9.71729 39.1352C7.13844 48.6269 4.78663 58.7619 3.37748 68.1089C3.27094 68.8156 3.16873 69.5241 3.07156 70.2333C1.38274 66.8001 0.329673 62.995 0.0647734 58.9704C0 57.9863 0 56.8207 0 54.4895ZM42.5001 71.3428C37.8085 71.6216 33.4281 68.5469 32.2265 63.8232L28.129 47.7154C26.0428 55.7116 24.2544 63.7914 23.154 71.0904C22.2429 77.1334 21.8864 82.1378 22.0296 85.9259C23.9581 86.4561 25.965 86.7994 28.0297 86.9353C29.0138 87.0001 30.1793 87.0001 32.5105 87.0001H52.4895C54.8206 87.0001 55.9862 87.0001 56.9703 86.9353C59.0351 86.7994 61.042 86.456 62.9706 85.9258C63.1138 82.1377 62.7573 77.1334 61.8462 71.0904C60.7458 63.7914 58.9574 55.7116 56.8712 47.7154L52.7737 63.8232C51.5721 68.5469 47.1917 71.6216 42.5001 71.3428ZM27.3044 44.5422C27.3032 44.5399 27.3025 44.5388 27.3025 44.5388L27.3044 44.5422Z" fill="url(#paint0_linear_30_129)"/>
<defs>
<linearGradient id="paint0_linear_30_129" x1="-26" y1="21.979" x2="77.3597" y2="81.1293" gradientUnits="userSpaceOnUse">
<stop stop-color="#000F41"/>
<stop offset="1" stop-color="#002AB4"/>
</linearGradient>
</defs>
</svg>
